# This file uses centimeters as units for non-parametric coordinates.

mtllib PlaceMat_001.mtl
g default
v -0.066183 1.416057 1.347882
v 3.933817 1.416057 1.347882
v -0.066183 1.426057 1.347882
v 3.933817 1.426057 1.347882
v -0.066183 1.426057 -1.152118
v 3.933817 1.426057 -1.152118
v -0.066183 1.416057 -1.152118
v 3.933817 1.416057 -1.152118
vt 0.188131 0.009016
vt 0.500111 0.009016
vt 0.500111 0.493166
vt 0.188131 0.493166
vt 0.015960 0.493166
vt 0.512263 0.514728
vt 0.985997 0.514728
vt 0.985997 0.988462
vt 0.512263 0.988462
vt 0.012488 0.987733
vt 0.489694 0.987733
vt 0.489694 0.510527
vt 0.012488 0.510527
vt 0.015960 0.009016
vt 0.984261 0.493166
vt 0.672282 0.493166
vt 0.672282 0.009016
vt 0.984261 0.009016
vn 0.000000 0.000000 1.000000
vn 0.000000 0.000000 1.000000
vn 0.000000 0.000000 1.000000
vn 0.000000 0.000000 1.000000
vn 0.000000 1.000000 0.000000
vn 0.000000 1.000000 0.000000
vn 0.000000 1.000000 0.000000
vn 0.000000 1.000000 0.000000
vn 0.000000 0.000000 -1.000000
vn 0.000000 0.000000 -1.000000
vn 0.000000 0.000000 -1.000000
vn 0.000000 0.000000 -1.000000
vn 0.000000 -1.000000 0.000000
vn 0.000000 -1.000000 0.000000
vn 0.000000 -1.000000 0.000000
vn 0.000000 -1.000000 0.000000
vn 1.000000 0.000000 0.000000
vn 1.000000 0.000000 0.000000
vn 1.000000 0.000000 0.000000
vn 1.000000 0.000000 0.000000
vn -1.000000 0.000000 0.000000
vn -1.000000 0.000000 0.000000
vn -1.000000 0.000000 0.000000
vn -1.000000 0.000000 0.000000
s off
g Place_Mat
usemtl initialShadingGroup
f 1/1/1 2/2/2 4/3/3 3/4/4
f 3/6/5 4/7/6 6/8/7 5/9/8
f 5/15/9 6/16/10 8/17/11 7/18/12
f 7/10/13 8/11/14 2/12/15 1/13/16
f 2/2/17 8/17/18 6/16/19 4/3/20
f 7/14/21 1/1/22 3/4/23 5/5/24
