# This file uses centimeters as units for non-parametric coordinates.

mtllib Stand-024.mtl
g default
v 24.215406 4.878069 -16.999620
v 22.877546 4.878069 -18.337476
v 25.999661 4.878069 -16.999620
v 27.337518 4.878069 -18.337476
v 27.337518 4.878069 -20.121730
v 25.999661 4.878069 -21.459587
v 24.215406 4.878069 -21.459587
v 22.877546 4.878069 -20.121730
v 24.215406 4.731717 -16.999620
v 22.877546 4.731717 -18.337476
v 25.999661 4.731717 -16.999620
v 27.337518 4.731717 -18.337476
v 27.337518 4.731717 -20.121730
v 25.999661 4.731717 -21.459587
v 24.215406 4.731717 -21.459587
v 22.877546 4.731717 -20.121730
v 24.182053 4.878069 -16.916252
v 22.794176 4.878069 -18.304124
v 26.033011 4.878069 -16.916252
v 27.420884 4.878069 -18.304124
v 27.420884 4.878069 -20.155083
v 26.033011 4.878069 -21.542955
v 24.182053 4.878069 -21.542955
v 22.794176 4.878069 -20.155083
v 24.182053 5.037781 -16.916252
v 22.794176 5.037781 -18.304124
v 26.033011 5.037781 -16.916252
v 27.420884 5.037781 -18.304124
v 27.420884 5.037781 -20.155083
v 26.033011 5.037781 -21.542955
v 24.182053 5.037781 -21.542955
v 22.794176 5.037781 -20.155083
v 24.490546 5.037781 -17.687369
v 23.565296 5.037781 -18.612617
v 25.724517 5.037781 -17.687369
v 26.649766 5.037781 -18.612617
v 26.649766 5.037781 -19.846590
v 25.724517 5.037781 -20.771838
v 24.490546 5.037781 -20.771838
v 23.565296 5.037781 -19.846590
v 24.490546 5.145655 -17.687369
v 23.565296 5.145655 -18.612617
v 25.724517 5.145655 -17.687369
v 26.649766 5.145655 -18.612617
v 26.649766 5.145655 -19.846590
v 25.724517 5.145655 -20.771838
v 24.490546 5.145655 -20.771838
v 23.565296 5.145655 -19.846590
v 24.562527 5.145655 -17.867296
v 23.745223 5.145655 -18.684599
v 25.652536 5.145655 -17.867296
v 26.469837 5.145655 -18.684599
v 26.469837 5.145655 -19.774608
v 25.652536 5.145655 -20.591910
v 24.562527 5.145655 -20.591910
v 23.745223 5.145655 -19.774608
v 24.562527 6.068315 -17.867296
v 23.745223 6.068315 -18.684599
v 25.652536 6.068315 -17.867296
v 26.469837 6.068315 -18.684599
v 26.469837 6.068315 -19.774608
v 25.652536 6.068315 -20.591910
v 24.562527 6.068315 -20.591910
v 23.745223 6.068315 -19.774608
v 24.508024 6.068315 -17.731066
v 23.608991 6.068315 -18.630098
v 25.707036 6.068315 -17.731066
v 26.606067 6.068315 -18.630098
v 26.606067 6.068315 -19.829108
v 25.707036 6.068315 -20.728141
v 24.508024 6.068315 -20.728141
v 23.608991 6.068315 -19.829108
v 24.508024 6.333506 -17.731066
v 23.608991 6.333506 -18.630098
v 25.707036 6.333506 -17.731066
v 26.606067 6.333506 -18.630098
v 26.606067 6.333506 -19.829108
v 25.707036 6.333506 -20.728141
v 24.508024 6.333506 -20.728141
v 23.608991 6.333506 -19.829108
v 24.647909 6.333506 -18.080724
v 23.958650 6.333506 -18.769983
v 25.567151 6.333506 -18.080724
v 26.256407 6.333506 -18.769983
v 26.256407 6.333506 -19.689224
v 25.567151 6.333506 -20.378482
v 24.647909 6.333506 -20.378482
v 23.958650 6.333506 -19.689224
v 24.647909 6.461608 -18.080724
v 23.958650 6.461608 -18.769983
v 25.567151 6.461608 -18.080724
v 26.256407 6.461608 -18.769983
v 26.256407 6.461608 -19.689224
v 25.567151 6.461608 -20.378482
v 24.647909 6.461608 -20.378482
v 23.958650 6.461608 -19.689224
vt 0.375000 0.324992
vt 0.449992 0.250000
vt 0.550008 0.250000
vt 0.625000 0.324993
vt 0.625000 0.425007
vt 0.550008 0.500000
vt 0.449992 0.500000
vt 0.375000 0.425007
vt 0.375000 0.324992
vt 0.449992 0.250000
vt 0.550008 0.250000
vt 0.625000 0.324993
vt 0.625000 0.425007
vt 0.550008 0.500000
vt 0.449992 0.500000
vt 0.375000 0.425007
vt 0.375000 0.324992
vt 0.449992 0.250000
vt 0.550008 0.250000
vt 0.625000 0.324993
vt 0.625000 0.425007
vt 0.550008 0.500000
vt 0.449992 0.500000
vt 0.375000 0.425007
vt 0.375000 0.324992
vt 0.449992 0.250000
vt 0.550008 0.250000
vt 0.625000 0.324993
vt 0.625000 0.425007
vt 0.550008 0.500000
vt 0.449992 0.500000
vt 0.375000 0.425007
vt 0.375000 0.324992
vt 0.449992 0.250000
vt 0.550008 0.250000
vt 0.625000 0.324993
vt 0.625000 0.425007
vt 0.550008 0.500000
vt 0.449992 0.500000
vt 0.375000 0.425007
vt 0.375000 0.324992
vt 0.449992 0.250000
vt 0.550008 0.250000
vt 0.625000 0.324993
vt 0.625000 0.425007
vt 0.550008 0.500000
vt 0.449992 0.500000
vt 0.375000 0.425007
vt 0.375000 0.324992
vt 0.449992 0.250000
vt 0.550008 0.250000
vt 0.625000 0.324993
vt 0.625000 0.425007
vt 0.550008 0.500000
vt 0.449992 0.500000
vt 0.375000 0.425007
vt 0.375000 0.324992
vt 0.449992 0.250000
vt 0.550008 0.250000
vt 0.625000 0.324993
vt 0.625000 0.425007
vt 0.550008 0.500000
vt 0.449992 0.500000
vt 0.375000 0.425007
vt 0.375000 0.324992
vt 0.449992 0.250000
vt 0.550008 0.250000
vt 0.625000 0.324993
vt 0.625000 0.425007
vt 0.550008 0.500000
vt 0.449992 0.500000
vt 0.375000 0.425007
vt 0.375000 0.324992
vt 0.449992 0.250000
vt 0.550008 0.250000
vt 0.625000 0.324993
vt 0.625000 0.425007
vt 0.550008 0.500000
vt 0.449992 0.500000
vt 0.375000 0.425007
vt 0.375000 0.324992
vt 0.449992 0.250000
vt 0.550008 0.250000
vt 0.625000 0.324993
vt 0.625000 0.425007
vt 0.550008 0.500000
vt 0.449992 0.500000
vt 0.375000 0.425007
vt 0.375000 0.324992
vt 0.449992 0.250000
vt 0.550008 0.250000
vt 0.625000 0.324993
vt 0.625000 0.425007
vt 0.550008 0.500000
vt 0.449992 0.500000
vt 0.375000 0.425007
vt 0.504259 0.250000
vt 0.504259 0.250000
vt 0.504259 0.250000
vt 0.504259 0.250000
vt 0.504259 0.250000
vt 0.504259 0.250000
vt 0.504259 0.250000
vt 0.504259 0.250000
vt 0.504259 0.250000
vt 0.504259 0.250000
vt 0.504259 0.250000
vt 0.504259 0.250000
vt 0.499454 0.250000
vt 0.499454 0.250000
vt 0.499454 0.250000
vt 0.499454 0.250000
vt 0.499454 0.250000
vt 0.499454 0.250000
vt 0.499454 0.250000
vt 0.499454 0.250000
vt 0.499454 0.250000
vt 0.499454 0.250000
vt 0.499454 0.250000
vt 0.499454 0.250000
vt 0.550008 0.250000
vt 0.449992 0.250000
vt 0.375000 0.324992
vt 0.375000 0.425007
vt 0.449992 0.500000
vt 0.550008 0.500000
vt 0.625000 0.425007
vt 0.625000 0.324993
vt 0.550008 0.250000
vt 0.449992 0.250000
vt 0.375000 0.324992
vt 0.375000 0.425007
vt 0.449992 0.500000
vt 0.550008 0.500000
vt 0.625000 0.425007
vt 0.625000 0.324993
vt 0.500981 0.250000
vt 0.500981 0.250000
vt 0.500981 0.250000
vt 0.500981 0.250000
vt 0.500981 0.250000
vt 0.500981 0.250000
vt 0.500981 0.250000
vt 0.500981 0.250000
vt 0.500981 0.250000
vt 0.500981 0.250000
vt 0.500981 0.250000
vt 0.500981 0.250000
vn 0.000000 -1.000000 -0.000000
vn 0.000000 -1.000000 -0.000000
vn 0.000000 -1.000000 -0.000000
vn 0.000000 -1.000000 -0.000000
vn 0.000000 -1.000000 -0.000000
vn 0.000000 -1.000000 -0.000000
vn 0.000000 -1.000000 -0.000000
vn 0.000000 -1.000000 -0.000000
vn -0.707106 0.000000 0.707108
vn -0.707106 0.000000 0.707108
vn -0.707106 0.000000 0.707108
vn -0.707106 0.000000 0.707108
vn 0.000000 0.000000 1.000000
vn 0.000000 0.000000 1.000000
vn 0.000000 0.000000 1.000000
vn 0.000000 0.000000 1.000000
vn 0.707107 0.000000 0.707107
vn 0.707107 0.000000 0.707107
vn 0.707107 0.000000 0.707107
vn 0.707107 0.000000 0.707107
vn 1.000000 0.000000 0.000000
vn 1.000000 0.000000 0.000000
vn 1.000000 0.000000 0.000000
vn 1.000000 0.000000 0.000000
vn 0.707107 0.000000 -0.707107
vn 0.707107 0.000000 -0.707107
vn 0.707107 0.000000 -0.707107
vn 0.707107 0.000000 -0.707107
vn 0.000000 0.000000 -1.000000
vn 0.000000 0.000000 -1.000000
vn 0.000000 0.000000 -1.000000
vn 0.000000 0.000000 -1.000000
vn -0.707106 0.000000 -0.707108
vn -0.707106 0.000000 -0.707108
vn -0.707106 0.000000 -0.707108
vn -0.707106 0.000000 -0.707108
vn -1.000000 0.000000 0.000000
vn -1.000000 0.000000 0.000000
vn -1.000000 0.000000 0.000000
vn -1.000000 0.000000 0.000000
vn 0.000000 1.000000 0.000000
vn 0.000000 1.000000 0.000000
vn 0.000000 1.000000 0.000000
vn 0.000000 1.000000 0.000000
vn 0.000000 1.000000 0.000000
vn 0.000000 1.000000 0.000000
vn 0.000000 1.000000 0.000000
vn 0.000000 1.000000 0.000000
vn 0.000000 -1.000000 0.000001
vn 0.000000 -1.000000 0.000001
vn 0.000000 -1.000000 0.000001
vn 0.000000 -1.000000 0.000001
vn 0.000000 -1.000000 -0.000002
vn 0.000000 -1.000000 -0.000002
vn 0.000000 -1.000000 -0.000002
vn 0.000000 -1.000000 -0.000002
vn 0.000000 -1.000000 -0.000001
vn 0.000000 -1.000000 -0.000001
vn 0.000000 -1.000000 -0.000001
vn 0.000000 -1.000000 -0.000001
vn 0.000000 -1.000000 0.000000
vn 0.000000 -1.000000 0.000000
vn 0.000000 -1.000000 0.000000
vn 0.000000 -1.000000 0.000000
vn 0.000000 -1.000000 -0.000001
vn 0.000000 -1.000000 -0.000001
vn 0.000000 -1.000000 -0.000001
vn 0.000000 -1.000000 -0.000001
vn 0.000000 -1.000000 0.000002
vn 0.000000 -1.000000 0.000002
vn 0.000000 -1.000000 0.000002
vn 0.000000 -1.000000 0.000002
vn 0.000000 -1.000000 0.000001
vn 0.000000 -1.000000 0.000001
vn 0.000000 -1.000000 0.000001
vn 0.000000 -1.000000 0.000001
vn 0.000000 -1.000000 0.000000
vn 0.000000 -1.000000 0.000000
vn 0.000000 -1.000000 0.000000
vn 0.000000 -1.000000 0.000000
vn -0.707105 0.000000 0.707108
vn -0.707105 0.000000 0.707108
vn -0.707105 0.000000 0.707108
vn -0.707105 0.000000 0.707108
vn 0.000000 0.000000 1.000000
vn 0.000000 0.000000 1.000000
vn 0.000000 0.000000 1.000000
vn 0.000000 0.000000 1.000000
vn 0.707107 0.000000 0.707107
vn 0.707107 0.000000 0.707107
vn 0.707107 0.000000 0.707107
vn 0.707107 0.000000 0.707107
vn 1.000000 0.000000 0.000000
vn 1.000000 0.000000 0.000000
vn 1.000000 0.000000 0.000000
vn 1.000000 0.000000 0.000000
vn 0.707107 0.000000 -0.707107
vn 0.707107 0.000000 -0.707107
vn 0.707107 0.000000 -0.707107
vn 0.707107 0.000000 -0.707107
vn 0.000000 0.000000 -1.000000
vn 0.000000 0.000000 -1.000000
vn 0.000000 0.000000 -1.000000
vn 0.000000 0.000000 -1.000000
vn -0.707105 0.000000 -0.707108
vn -0.707105 0.000000 -0.707108
vn -0.707105 0.000000 -0.707108
vn -0.707105 0.000000 -0.707108
vn -1.000000 0.000000 0.000000
vn -1.000000 0.000000 0.000000
vn -1.000000 0.000000 0.000000
vn -1.000000 0.000000 0.000000
vn 0.000000 1.000000 -0.000000
vn 0.000000 1.000000 -0.000000
vn 0.000000 1.000000 -0.000000
vn 0.000000 1.000000 -0.000000
vn 0.000000 1.000000 0.000000
vn 0.000000 1.000000 0.000000
vn 0.000000 1.000000 0.000000
vn 0.000000 1.000000 0.000000
vn 0.000000 1.000000 0.000000
vn 0.000000 1.000000 0.000000
vn 0.000000 1.000000 -0.000000
vn 0.000000 1.000000 -0.000000
vn 0.000000 1.000000 -0.000000
vn 0.000000 1.000000 0.000000
vn 0.000000 1.000000 0.000000
vn 0.000000 1.000000 0.000000
vn -0.707105 0.000000 0.707108
vn -0.707105 0.000000 0.707108
vn -0.707105 0.000000 0.707108
vn -0.707105 0.000000 0.707108
vn 0.000000 0.000000 1.000000
vn 0.000000 0.000000 1.000000
vn 0.000000 0.000000 1.000000
vn 0.000000 0.000000 1.000000
vn 0.707107 0.000000 0.707107
vn 0.707107 0.000000 0.707107
vn 0.707107 0.000000 0.707107
vn 0.707107 0.000000 0.707107
vn 1.000000 0.000000 0.000000
vn 1.000000 0.000000 0.000000
vn 1.000000 0.000000 0.000000
vn 1.000000 0.000000 0.000000
vn 0.707107 0.000000 -0.707107
vn 0.707107 0.000000 -0.707107
vn 0.707107 0.000000 -0.707107
vn 0.707107 0.000000 -0.707107
vn 0.000000 0.000000 -1.000000
vn 0.000000 0.000000 -1.000000
vn 0.000000 0.000000 -1.000000
vn 0.000000 0.000000 -1.000000
vn -0.707105 0.000000 -0.707108
vn -0.707105 0.000000 -0.707108
vn -0.707105 0.000000 -0.707108
vn -0.707105 0.000000 -0.707108
vn -1.000000 0.000000 0.000000
vn -1.000000 0.000000 0.000000
vn -1.000000 0.000000 0.000000
vn -1.000000 0.000000 0.000000
vn 0.000000 1.000000 -0.000000
vn 0.000000 1.000000 -0.000001
vn 0.000000 1.000000 -0.000001
vn 0.000000 1.000000 -0.000000
vn 0.000000 1.000000 -0.000000
vn 0.000000 1.000000 0.000000
vn 0.000000 1.000000 0.000000
vn 0.000000 1.000000 0.000000
vn 0.000000 1.000000 0.000000
vn 0.000000 1.000000 0.000000
vn 0.000000 1.000000 0.000000
vn 0.000000 1.000000 0.000000
vn 0.000000 1.000000 0.000001
vn 0.000000 1.000000 0.000001
vn 0.000000 1.000000 0.000000
vn 0.000000 1.000000 0.000000
vn -0.707106 0.000000 0.707107
vn -0.707106 0.000000 0.707107
vn -0.707106 0.000000 0.707107
vn -0.707106 0.000000 0.707107
vn 0.000000 0.000000 1.000000
vn 0.000000 0.000000 1.000000
vn 0.000000 0.000000 1.000000
vn 0.000000 0.000000 1.000000
vn 0.707107 0.000000 0.707106
vn 0.707107 0.000000 0.707106
vn 0.707107 0.000000 0.707106
vn 0.707107 0.000000 0.707106
vn 1.000000 0.000000 0.000000
vn 1.000000 0.000000 0.000000
vn 1.000000 0.000000 0.000000
vn 1.000000 0.000000 0.000000
vn 0.707107 0.000000 -0.707106
vn 0.707107 0.000000 -0.707106
vn 0.707107 0.000000 -0.707106
vn 0.707107 0.000000 -0.707106
vn 0.000000 0.000000 -1.000000
vn 0.000000 0.000000 -1.000000
vn 0.000000 0.000000 -1.000000
vn 0.000000 0.000000 -1.000000
vn -0.707106 0.000000 -0.707107
vn -0.707106 0.000000 -0.707107
vn -0.707106 0.000000 -0.707107
vn -0.707106 0.000000 -0.707107
vn -1.000000 0.000000 0.000000
vn -1.000000 0.000000 0.000000
vn -1.000000 0.000000 0.000000
vn -1.000000 0.000000 0.000000
vn 0.000000 -1.000000 0.000000
vn 0.000000 -1.000000 -0.000001
vn 0.000000 -1.000000 -0.000001
vn 0.000000 -1.000000 0.000000
vn 0.000000 -1.000000 -0.000002
vn 0.000000 -1.000000 -0.000002
vn 0.000000 -1.000000 -0.000001
vn 0.000000 -1.000000 -0.000001
vn 0.000000 -1.000000 -0.000000
vn 0.000000 -1.000000 -0.000000
vn 0.000000 -1.000000 0.000001
vn 0.000000 -1.000000 0.000001
vn 0.000000 -1.000000 0.000001
vn 0.000000 -1.000000 0.000001
vn 0.000000 -1.000000 0.000001
vn 0.000000 -1.000000 0.000001
vn -0.707106 0.000000 0.707107
vn -0.707106 0.000000 0.707107
vn -0.707106 0.000000 0.707107
vn -0.707106 0.000000 0.707107
vn 0.000000 0.000000 1.000000
vn 0.000000 0.000000 1.000000
vn 0.000000 0.000000 1.000000
vn 0.000000 0.000000 1.000000
vn 0.707107 0.000000 0.707107
vn 0.707107 0.000000 0.707107
vn 0.707107 0.000000 0.707107
vn 0.707107 0.000000 0.707107
vn 1.000000 0.000000 0.000000
vn 1.000000 0.000000 0.000000
vn 1.000000 0.000000 0.000000
vn 1.000000 0.000000 0.000000
vn 0.707107 0.000000 -0.707107
vn 0.707107 0.000000 -0.707107
vn 0.707107 0.000000 -0.707107
vn 0.707107 0.000000 -0.707107
vn 0.000000 0.000000 -1.000000
vn 0.000000 0.000000 -1.000000
vn 0.000000 0.000000 -1.000000
vn 0.000000 0.000000 -1.000000
vn -0.707106 0.000000 -0.707107
vn -0.707106 0.000000 -0.707107
vn -0.707106 0.000000 -0.707107
vn -0.707106 0.000000 -0.707107
vn -1.000000 0.000000 0.000000
vn -1.000000 0.000000 0.000000
vn -1.000000 0.000000 0.000000
vn -1.000000 0.000000 0.000000
vn 0.000000 1.000000 0.000000
vn 0.000000 1.000000 -0.000000
vn 0.000000 1.000000 -0.000000
vn 0.000000 1.000000 0.000000
vn 0.000000 1.000000 -0.000001
vn 0.000000 1.000000 -0.000001
vn 0.000000 1.000000 -0.000000
vn 0.000000 1.000000 -0.000000
vn 0.000000 1.000000 0.000000
vn 0.000000 1.000000 0.000000
vn 0.000000 1.000000 0.000000
vn 0.000000 1.000000 0.000000
vn 0.000000 1.000000 0.000000
vn 0.000000 1.000000 0.000000
vn 0.000000 1.000000 -0.000000
vn 0.000000 1.000000 -0.000000
vn -0.707108 0.000000 0.707106
vn -0.707108 0.000000 0.707106
vn -0.707108 0.000000 0.707106
vn -0.707108 0.000000 0.707106
vn 0.000000 0.000000 1.000000
vn 0.000000 0.000000 1.000000
vn 0.000000 0.000000 1.000000
vn 0.000000 0.000000 1.000000
vn 0.707109 0.000000 0.707105
vn 0.707109 0.000000 0.707105
vn 0.707109 0.000000 0.707105
vn 0.707109 0.000000 0.707105
vn 1.000000 0.000000 0.000000
vn 1.000000 0.000000 0.000000
vn 1.000000 0.000000 0.000000
vn 1.000000 0.000000 0.000000
vn 0.707109 0.000000 -0.707105
vn 0.707109 0.000000 -0.707105
vn 0.707109 0.000000 -0.707105
vn 0.707109 0.000000 -0.707105
vn 0.000000 0.000000 -1.000000
vn 0.000000 0.000000 -1.000000
vn 0.000000 0.000000 -1.000000
vn 0.000000 0.000000 -1.000000
vn -0.707108 0.000000 -0.707106
vn -0.707108 0.000000 -0.707106
vn -0.707108 0.000000 -0.707106
vn -0.707108 0.000000 -0.707106
vn -1.000000 0.000000 0.000000
vn -1.000000 0.000000 0.000000
vn -1.000000 0.000000 0.000000
vn -1.000000 0.000000 0.000000
s off
g Stand_024
usemtl initialShadingGroup
f 10/9/1 16/16/2 15/15/3 14/14/4 13/13/5 12/12/6 11/11/7 9/10/8
f 2/1/9 10/9/10 9/10/11 1/2/12
f 1/2/13 9/10/14 11/11/15 3/3/16
f 3/3/17 11/11/18 12/12/19 4/4/20
f 4/4/21 12/12/22 13/13/23 5/5/24
f 5/5/25 13/13/26 14/14/27 6/6/28
f 6/6/29 14/14/30 15/15/31 7/7/32
f 7/7/33 15/15/34 16/16/35 8/8/36
f 8/8/37 16/16/38 10/9/39 2/1/40
f 90/89/41 89/90/42 91/91/43 92/92/44 93/93/45 94/94/46 95/95/47 96/96/48
f 2/1/49 1/2/50 17/18/51 18/17/52
f 1/2/53 3/3/54 19/19/55 17/18/56
f 3/3/57 4/4/58 20/20/59 19/19/60
f 4/4/61 5/5/62 21/21/63 20/20/64
f 5/5/65 6/6/66 22/22/67 21/21/68
f 6/6/69 7/7/70 23/23/71 22/22/72
f 7/7/73 8/8/74 24/24/75 23/23/76
f 8/8/77 2/1/78 18/17/79 24/24/80
f 18/17/81 17/18/82 25/26/83 26/25/84
f 17/18/85 19/19/86 27/27/87 25/26/88
f 19/19/89 20/20/90 28/28/91 27/27/92
f 20/20/93 21/21/94 29/29/95 28/28/96
f 21/21/97 22/22/98 30/30/99 29/29/100
f 22/22/101 23/23/102 31/31/103 30/30/104
f 23/23/105 24/24/106 32/32/107 31/31/108
f 24/24/109 18/17/110 26/25/111 32/32/112
s 1
f 26/25/113 25/26/114 33/34/115 34/33/116
f 25/26/114 27/27/117 35/35/118 33/34/115
f 27/27/117 28/28/119 36/36/120 35/35/118
f 28/28/119 29/29/121 37/37/122 36/36/120
f 29/29/121 30/30/123 38/38/124 37/37/122
f 30/30/123 31/31/125 39/39/126 38/38/124
f 31/31/125 32/32/127 40/40/128 39/39/126
f 32/32/127 26/25/113 34/33/116 40/40/128
s off
f 34/33/129 33/34/130 41/42/131 42/41/132
f 33/34/133 35/35/134 43/43/135 41/42/136
f 35/35/137 36/36/138 44/44/139 43/43/140
f 36/36/141 37/37/142 45/45/143 44/44/144
f 37/37/145 38/38/146 46/46/147 45/45/148
f 38/38/149 39/39/150 47/47/151 46/46/152
f 39/39/153 40/40/154 48/48/155 47/47/156
f 40/40/157 34/33/158 42/41/159 48/48/160
s 2
f 42/41/161 41/42/162 49/50/163 50/49/164
f 41/42/162 43/43/165 51/51/166 49/50/163
f 43/43/165 44/44/167 52/52/168 51/51/166
f 44/44/167 45/45/169 53/53/170 52/52/168
f 45/45/169 46/46/171 54/54/172 53/53/170
f 46/46/171 47/47/173 55/55/174 54/54/172
f 47/47/173 48/48/175 56/56/176 55/55/174
f 48/48/175 42/41/161 50/49/164 56/56/176
s off
f 50/49/177 49/50/178 57/58/179 58/57/180
f 49/50/181 51/51/182 59/59/183 57/58/184
f 51/51/185 52/52/186 60/60/187 59/59/188
f 52/52/189 53/53/190 61/61/191 60/60/192
f 53/53/193 54/54/194 62/62/195 61/61/196
f 54/54/197 55/55/198 63/63/199 62/62/200
f 55/55/201 56/56/202 64/64/203 63/63/204
f 56/56/205 50/49/206 58/57/207 64/64/208
s 3
f 58/57/209 57/58/210 65/66/211 66/65/212
f 57/58/210 59/59/213 67/67/214 65/66/211
f 59/59/213 60/60/215 68/68/216 67/67/214
f 60/60/215 61/61/217 69/69/218 68/68/216
f 61/61/217 62/62/219 70/70/220 69/69/218
f 62/62/219 63/63/221 71/71/222 70/70/220
f 63/63/221 64/64/223 72/72/224 71/71/222
f 64/64/223 58/57/209 66/65/212 72/72/224
s off
f 66/65/225 65/66/226 73/74/227 74/73/228
f 65/66/229 67/67/230 75/75/231 73/74/232
f 67/67/233 68/68/234 76/76/235 75/75/236
f 68/68/237 69/69/238 77/77/239 76/76/240
f 69/69/241 70/70/242 78/78/243 77/77/244
f 70/70/245 71/71/246 79/79/247 78/78/248
f 71/71/249 72/72/250 80/80/251 79/79/252
f 72/72/253 66/65/254 74/73/255 80/80/256
s 4
f 74/73/257 73/74/258 81/82/259 82/81/260
f 73/74/258 75/75/261 83/83/262 81/82/259
f 75/75/261 76/76/263 84/84/264 83/83/262
f 76/76/263 77/77/265 85/85/266 84/84/264
f 77/77/265 78/78/267 86/86/268 85/85/266
f 78/78/267 79/79/269 87/87/270 86/86/268
f 79/79/269 80/80/271 88/88/272 87/87/270
f 80/80/271 74/73/257 82/81/260 88/88/272
s off
f 82/81/273 81/82/274 89/90/275 90/89/276
f 81/82/277 83/83/278 91/91/279 89/90/280
f 83/83/281 84/84/282 92/92/283 91/91/284
f 84/84/285 85/85/286 93/93/287 92/92/288
f 85/85/289 86/86/290 94/94/291 93/93/292
f 86/86/293 87/87/294 95/95/295 94/94/296
f 87/87/297 88/88/298 96/96/299 95/95/300
f 88/88/301 82/81/302 90/89/303 96/96/304
